<?xml version="1.0" encoding="UTF-8" standalone="no"?>
<!-- Created with Inkscape (http://www.inkscape.org/) -->

<svg
   xmlns:dc="http://purl.org/dc/elements/1.1/"
   xmlns:cc="http://creativecommons.org/ns#"
   xmlns:rdf="http://www.w3.org/1999/02/22-rdf-syntax-ns#"
   xmlns:svg="http://www.w3.org/2000/svg"
   xmlns="http://www.w3.org/2000/svg"
   xmlns:sodipodi="http://sodipodi.sourceforge.net/DTD/sodipodi-0.dtd"
   xmlns:inkscape="http://www.inkscape.org/namespaces/inkscape"
   width="100%"
   viewBox="0 0 313.3336 296.00161"
   id="svg4263"
   version="1.1"
   inkscape:version="0.91 r13725"
   sodipodi:docname="tx-logo-flat-white-plain.svg">
  <defs
     id="defs4265" />
  <sodipodi:namedview
     id="base"
     pagecolor="#000000"
     bordercolor="#666666"
     borderopacity="1.0"
     inkscape:pageopacity="0"
     inkscape:pageshadow="2"
     inkscape:zoom="1"
     inkscape:cx="173.33358"
     inkscape:cy="66.331734"
     inkscape:document-units="px"
     inkscape:current-layer="layer1"
     showgrid="false"
     inkscape:window-width="964"
     inkscape:window-height="592"
     inkscape:window-x="807"
     inkscape:window-y="237"
     inkscape:window-maximized="0"
     units="px"
     borderlayer="true"
     fit-margin-top="0"
     fit-margin-left="0"
     fit-margin-right="0"
     fit-margin-bottom="0" />
  <metadata
     id="metadata4268">
    <rdf:RDF>
      <cc:Work
         rdf:about="">
        <dc:format>image/svg+xml</dc:format>
        <dc:type
           rdf:resource="http://purl.org/dc/dcmitype/StillImage" />
        <dc:title></dc:title>
      </cc:Work>
    </rdf:RDF>
  </metadata>
  <g
     inkscape:label="Layer 1"
     inkscape:groupmode="layer"
     id="layer1"
     transform="translate(-222.55785,-351.04961)">
    <path
       style="fill:#ffffff;fill-opacity:1;fill-rule:nonzero;stroke:none"
       d="m 309.9538,351.0732 -1.00057,0.0214 0.021,0.53042 -0.021,0.92082 -0.021,4.10159 -0.021,4.08861 -0.021,4.08008 -0.021,4.07571 -0.021,4.07361 -0.021,4.06054 -0.021,4.05194 -0.021,4.04777 -0.021,4.03884 -0.021,4.0327 -0.021,4.02612 -0.021,4.02388 -0.0242,4.00899 -0.021,4.01085 -0.021,3.9959 -0.021,3.99167 -0.0214,3.98935 -0.021,3.97446 -0.021,3.97646 -0.0212,3.96137 -0.021,3.96138 -0.0215,3.95283 -0.021,3.94848 -0.021,3.94198 -0.021,3.93341 -0.021,3.9249 -0.021,3.92027 -0.021,3.91833 -0.021,3.90537 -0.021,3.9053 -0.021,3.89665 -0.021,3.89248 -5.29195,0 -5.30049,0.021 -10.58822,0 -5.28981,0.021 -10.59255,0 -5.28979,0.021 -10.58823,0 -5.29401,0.021 -10.58824,0 -5.29839,0.021 -10.59047,0 -0.61208,0.021 -0.39485,0 0.021,0.47012 0.5003,1.00488 0.12301,0.5908 0.0701,0.64918 0.17817,0.48524 0.58415,0.85822 -0.17735,0.20658 0.17108,0.32339 0.21789,0.24597 0.27388,0.15188 0.3298,0.0565 0.31065,0.20638 1.42102,1.47505 0.46388,0.11248 1.05648,-0.0954 0.88837,0.34933 0.79356,0.78929 0.64692,0.99196 0.44861,0.93587 0.62112,1.90419 0.28244,0.48952 0.99863,1.19032 0.2328,0.42059 0.0959,0.28025 0.0353,0.16125 0.0405,0.13211 0.14583,0.18549 0.83239,0.47873 0.24573,0.34288 0.54795,0.24143 1.00052,0.2869 0.80652,0.49368 0.4528,0.17588 0.59741,0.0683 0.39467,0.1495 1.03294,0.71815 0.30416,0.27379 0.15858,0.24586 0.18028,0.4636 0.15268,0.25453 0.45712,0.26093 0.28256,0.21216 0,0.0959 0.40089,0.14039 0.43781,0.34497 1.83525,2.14345 0.16836,0.50895 0.22444,0.35163 1.8072,1.1752 0.41173,0.15874 0.17275,0.11056 0.578,0.66832 0.48088,0.36462 0.42067,0.24367 0.36009,0.28675 0.28903,0.53481 0.30617,0.97912 0.23292,0.39459 0.59949,0.29317 0.81505,0.97698 1.9344,1.49443 0.93586,1.18817 0.29536,0.25233 0.7074,0.18506 1.36512,0.67295 0.14327,0.13385 0.11869,0.1598 0.14567,0.15236 0.25453,0.11471 0.11885,-0.021 0.0957,-0.0616 0.16147,-0.21229 0.0913,-0.0339 0.2609,0.0953 0.14502,0.027 0.17086,0.0892 0.2308,0.40534 0.23932,0.0892 0.24584,0.021 0.18529,0.0784 0.10418,0.17756 0.0426,0.29537 0.0735,-0.044 0.1045,0.0701 0.31038,0.3536 0.16127,-0.20659 1.11052,1.324 0.45078,0.19781 0.4442,0.0978 0.51317,0.24577 0.46364,0.36442 0.30207,0.4228 0.0637,0.28237 0.0353,0.30837 0.0549,0.29755 0.15124,0.23731 0.2393,0.0737 0.75267,0.10833 0.16419,0.0911 0.13896,0.30842 0.71605,0.83012 0.28244,0.48314 0.0542,0.2738 0.0487,0.57795 0.0571,0.27387 0.39246,0.24148 0.0892,0.13928 -0.021,0.1665 -0.13034,0.31062 -0.0353,0.18529 0.0485,0.30194 0.23933,0.36662 0.0487,0.27374 -0.0268,0.40978 -0.0356,0.1784 0.0427,0.14103 0.20471,0.31264 0.18028,0.18947 0.31482,0.19616 0.13865,0.18338 0.0549,0.23075 0.0215,0.31915 0.0459,0.27384 0.127,0.11071 0.44867,0.28686 0.34712,0.67072 0.2998,0.75464 0.2912,0.54126 0.17631,0.12301 0.41402,0.21219 0.22644,0.2265 0.46363,0.97467 0.33856,0.42484 0.0676,0.61884 -0.0427,0.99201 -0.1013,0.63394 -0.33215,0.98342 -0.068,0.54343 0.0634,0.65335 0.43984,1.50744 0.021,0.23724 -0.0549,0.43122 0.0464,0.26742 0.0911,0.14678 0.31054,0.37729 0.068,0.12716 0.0954,0.28031 0.45289,0.54767 0.33202,1.27239 0.0959,0.23286 0.43548,0.49812 0.42287,0.33439 0.3189,0.41392 0.2109,1.14739 0.42038,0.79349 0.15492,0.38812 0.0461,0.38817 0,0.2804 0.10418,0.26742 0.33852,0.36653 1.12556,0.79352 0.33855,0.32787 0.0707,0.17234 0.0804,0.25445 0.11216,0.2307 0.14534,0.10593 0.17652,0.0702 1.93646,1.23126 0.25455,0.37307 0.42901,-0.22632 0.66209,-0.021 0.61016,0.17609 0.38176,0.48518 0.56942,0.42274 0.20471,0.0909 0.15411,0.13848 0.42277,0.9681 0.78053,0.88213 0.52187,0.43545 0.82162,0.4098 1.1387,1.26369 0.91628,0.50665 2.16731,0.74845 1.52679,0.31687 1.66688,0.1013 0.25016,0.0758 0.21999,0.19781 0.12062,0.26971 -0.19783,0.60362 0.15937,0.14502 0.28034,0.0842 0.22638,0.10402 1.11934,0.94871 0.70511,0.39477 2.09614,0.50678 0.64675,-0.041 0.1855,0.041 0.20449,0.16127 0.083,0.17756 0.0619,0.19781 0.14103,0.22417 1.2162,1.20981 1.02216,0.56923 0.28893,0.093 0.2109,0.14231 0.67059,0.64266 0.34285,0.12971 0.27391,-0.15959 0.021,0 0.2066,-0.2587 0.021,0 0.21218,-0.0515 0.28907,0.47015 0.13928,-0.0828 0.34927,-0.11057 -0.14502,0.57145 0.34506,0.2109 1.42992,-0.034 1.30032,0.3601 0.92717,0.13896 0.60809,-0.31053 0.32351,-0.72458 0.10418,-0.93375 0.22431,-0.0701 0.0913,0.0701 0.13912,-0.48518 0.11008,-0.2632 0.19782,-0.1692 0.95091,-0.50668 0.20471,-0.16045 0.20263,-0.28892 0.65124,-1.36503 0.28457,-0.26742 0.15939,-0.16209 0.53479,0.29549 0.11663,-0.2264 1.08485,-0.8151 0.64697,-0.11837 0.2609,-0.11487 -0.21787,-0.31063 -0.57785,-0.38171 -0.18527,-0.26082 0.021,-0.32139 0.32773,-1.05455 0.021,-0.50889 0.0461,-0.2803 0.14678,-0.19175 0.28251,-0.24165 0.1254,-0.0383 0.14119,0 0.17297,-0.0215 0.20679,-0.11869 0.021,0 -0.021,-0.11057 -0.18527,-0.39252 0.0238,-0.15555 0.22426,-0.35795 0.021,-0.32348 -0.0911,-0.31051 -0.0531,-0.3106 0.0458,-0.37088 0.11678,-0.25219 0.16545,-0.24803 0.75684,-2.01202 0.21232,-0.16919 0.1337,-0.21234 -0.11887,-0.36656 0,-0.021 0.22647,-0.11023 0.0547,-0.098 -0.13162,-0.34283 0.28684,-0.13577 0.1479,-0.1671 0.23286,-0.45695 0,-0.0616 0.38598,-0.74196 0.0975,-0.0251 0.11056,-0.38168 0.69007,-1.23122 0.0703,-0.29984 0.0249,-0.23939 0.057,-0.20263 0,-0.0127 0.18341,-0.18529 0.17756,-0.0238 0.88423,0.0238 0.42262,-0.10003 0.85402,-0.47868 0.44207,-0.16817 0.0909,0.0439 0.11057,0.28027 0.12508,0.0616 0.15411,-0.0246 0.0676,-0.0635 0.021,0 0.0334,-0.0552 0.021,-0.021 0.24598,-0.20659 0.19177,-0.34078 0.18946,-0.06 2.59853,0.19761 0.021,0 0.0406,-0.0911 0.57784,-0.8347 0.0764,-0.27591 0.0482,-0.73314 0.0892,-0.25886 0.18739,-0.18529 0.28688,-0.0634 0.26512,-0.10116 0.22646,-0.49812 0,-0.021 0.22642,-0.12907 0.44853,0.12316 0.31061,0.31262 0.31056,0.23074 0.42258,-0.10146 0.11678,0.49156 0.32558,0.16733 0.85615,0.0844 1.11268,0.59085 0.27382,0.23942 0.86488,0.37097 2.25994,-0.24375 0.63182,0.16043 0.37313,-0.3601 0.3665,0.11902 0.33859,0.28035 0.31698,0.16438 0.22436,-0.021 0.21988,-0.0426 0.20471,-0.0893 0.15778,-0.14502 0.19385,-0.10626 0.23942,0.0427 0.47003,0.15555 0.80219,0 0.2762,-0.19175 0.15603,0.021 0.0676,0.28026 0.20659,0.15539 3.86865,0.55205 1.23988,-0.16063 0.36665,-0.12987 0.25865,-0.28249 0.0975,-0.51979 0.0764,-0.11662 0.17525,0.0521 0.16857,0.19385 0.0844,0.26097 -0.0509,0.13561 -0.21782,0.47435 -0.0763,0.22206 0.50683,0.13418 0.38162,-0.21792 0.37313,-0.31689 0.45927,-0.16335 0.20471,0.0701 0.16168,0.35804 0.22426,0.13178 0.26754,0.0238 0.25231,-0.0359 0.24791,-0.0737 0.21222,-0.11216 -0.0975,0.34506 0.0616,0.35361 0.17359,0.32999 0.38375,0.60594 0.16105,0.49375 0.28894,0.65135 0.16107,0.25227 0.20638,0.2001 0.30183,0.15413 0.63411,0 0.2047,0.12971 -0.0338,0.42928 -0.20011,0.57788 -0.0274,0.4032 0.26964,0.10179 0.41185,-0.3731 0.59303,-0.3364 0.59303,-0.0697 0.35155,0.33648 0.0323,0.70945 -0.21223,0.81949 0.0913,0.37306 0.23282,0.24576 0.26535,0.027 0.24793,0.068 0.21233,0.15475 0.44852,0.57147 0.69219,0.37099 1.58926,0.50245 0.71812,0.25013 0.19802,0.46573 0.0851,0.78071 0.0867,0.38168 0.13928,0.28036 0.20242,0.261 0.23276,0.21773 0.25884,0.17087 1.73161,0.79368 0.5608,0.50029 0.46361,0.60374 0.18717,0.15381 1.13853,0.54331 0.47874,0.36028 0.31049,0.39032 0.49816,0.93801 -0.19175,0.57578 0.1855,0.37301 1.26151,1.03301 0.0616,0.14678 0.11662,0.17693 0.26736,0.0697 0.29541,0.0404 0.22415,0.0892 0.19177,0.36453 0.20868,1.56987 0.46147,1.07813 0.0911,0.56292 -0.21232,0.58443 0.16816,0.17129 0.0978,0.22426 0.0376,0.28033 0.021,0.36008 0.1254,0.18361 0.28898,0.21234 0.28256,0.28896 0.13226,0.43336 0.0681,0.10003 0.35139,0.17588 0.12301,0.0916 0.0702,0.21231 -0.1447,0.33643 0.0737,0.19384 0.16418,0.0825 0.34305,0.021 0.15603,0.0846 0.0932,0.14534 0.12986,0.28035 0.0954,0.13241 0.13704,0.2695 0.59726,2.61801 0.30633,0.59725 0.87117,1.1451 -0.0339,0.46567 0.27378,0.20053 0.55867,0.26727 0.23724,0.18946 0.10418,0.26309 -0.0424,0.64465 0.0214,0.30203 0.32571,0.55207 0.4829,0.32773 0.98561,0.39686 -0.021,0 -0.68359,0.36426 -0.021,0 -0.11695,0.20659 0.027,0.29547 0.1784,0.21362 0.19175,0.16336 0.0909,0.14981 0.10817,0.98334 0.21774,0.94887 0.68376,0.90353 0.3665,0.6038 0.021,0.4356 -0.15587,0.49166 0.22657,0.52191 0.40975,0.45071 0.40534,0.29106 0.66853,0.12077 0.15961,0.0574 0.0676,0.22417 0.044,0.37965 0.0825,0.35998 0.20659,0.1514 0.38384,0.0785 2.33759,1.17964 0.43783,0.45066 0.18298,0.58657 0.0238,0.3667 0.0683,0.18946 0.32132,0.36649 0.33209,0.28908 0.17548,0.0552 -0.021,0.13897 -0.0683,0.18382 -0.021,0.16712 0.15045,0.45932 0.1713,0.35372 0.22433,0.33648 0.34492,0.41386 0.35157,0.13482 0.50031,0.10849 0.30188,0.2047 -0.27389,0.399 0.23303,0.39024 0.37299,0.48524 0.41399,0.4097 0.37524,0.17567 0.0528,0.1254 -0.0913,0.27595 -0.20451,0.41414 0.0764,0.30393 0.1832,0.14677 0.22655,0.12094 0.18695,0.23946 0.0323,0.25442 -0.0691,0.58429 0.0356,0.26092 0.11678,0.0272 0.31474,0.26738 0.28477,0.30203 0,0.14503 0.58662,0.11901 0.31264,0.28249 0.20473,0.35585 0.29113,0.34067 0.22213,0.12699 0.42274,0.12971 0.1715,0.10131 0.0954,0.22425 0.0512,0.31917 0.0788,0.27393 0.18695,0.10832 0.40761,0.64914 0.13035,0.11199 0.8474,-0.021 0.14661,0.13593 0.23718,0.45919 0.0913,0.11088 0.26522,-0.021 0.50036,-0.28467 0.29524,-0.0738 0.23304,0.11678 0.28891,0.51535 0.14503,0.11902 0.40754,0.123 0.48104,0.23291 0.4701,0.43562 0.19175,0.40111 0,1.07609 -0.068,0.61239 0.021,0.28251 0.13928,0.11662 0.36653,0.021 0.19197,0.10449 0.0909,0.2177 0.0825,0.37962 -0.0215,0.11679 0.0215,0.99191 -0.0634,0.32578 -0.21786,0.61237 -0.068,0.52621 -0.12508,0.35353 -0.0268,0.28041 -0.0825,0.25447 -0.38609,0.42916 -0.0214,0.0212 -0.15812,0.28043 0.67081,0.26738 0.15959,0.0959 0.0357,0.0764 0.0459,0.21237 0.0634,0.093 0.26959,0.13848 0.0704,0.0405 0.33642,0.40759 0.25874,0.43993 0.1692,0.47448 0.0487,0.5152 -0.0909,0.51326 -0.34505,1.15375 -0.0528,0.53467 0.0528,0.11678 0.10594,0.15173 0.1013,0.19634 0.0427,0.2437 -0.0549,0.2307 -0.47231,0.86691 0.42905,0.59961 0.0911,0.14677 0.3601,0.29326 0.21093,0.0823 0.20659,0.021 0.19384,0.044 0.1514,0.21365 0.0618,0.29556 -0.021,0.54555 0.1045,0.29328 0.21991,0.22427 0.9488,0.76762 0.26749,0.35159 0.75685,0.93598 0.34717,0.44202 0.399,0.4162 0.34929,0.45068 0.33651,1.15591 0.3019,1.27012 0.95747,2.80977 0.068,0.42913 0.17149,1.31985 0.14519,0.62309 0.57156,0.2373 0.61879,0.15476 0.28696,0.35803 0.27583,0.74614 0.0487,0.3385 -0.10594,0.30192 -0.2047,0.33843 -0.1554,0.33647 0.0549,0.29549 0.50026,0.40973 0.4572,0.0682 0.44204,-0.0528 0.47227,0.021 0.11695,0.0763 0.15411,0.23503 0.13961,0.0466 0.15411,-0.0274 0.40967,-0.17108 0.57794,0.021 0.20659,0.15077 0.21091,0.41417 0.36658,-0.3687 0.8777,0.64261 0.54347,-0.11056 0.23282,0.15508 0.22862,0.0616 0.20659,-0.0512 0.14677,-0.15858 0,-0.021 0.2674,0.15539 0.1836,-0.057 0.16355,-0.10131 0.2178,0.021 0.123,0.10131 0.36021,0.43548 0.8237,0.52413 0.24588,0.31266 -0.0919,0.44432 0.32562,-0.0249 0.31051,0.0249 0.28024,0.11216 0.2395,0.23089 -0.302,0.35796 0.0427,0.13561 0.21571,0.0251 0.19156,0.0552 0.48741,0.4723 0.26747,0.17087 0.31039,0.0616 1.406,-0.54343 0.68797,0.37301 0.74622,0.19198 0.67925,0.27614 0.48944,0.60366 0.31053,-0.38808 0.068,-0.0871 0.65554,0.21784 0.76125,0.43559 0.65994,0.19177 -0.19406,0.53689 0,0.26525 0.27607,0.0914 0.6318,0.0127 0.14679,0.18696 0.5584,0.83656 0.21568,0.26107 1.85885,0.94878 0.89286,0.26952 0.83018,0.0406 1.12567,-0.30401 0.47014,0.112 0.20032,0.63834 0.22642,0.11056 0.50471,-0.16648 0.74607,-0.39466 0.32991,-0.0235 1.37368,0.19991 1.51171,-0.17589 1.81571,0 0.46797,0.12986 0.0443,0.40757 0.32343,0.0914 2.07668,0.13449 0.47014,0.1013 0.43993,0.21365 0.4463,0.35832 0.23301,0.34288 0.19783,0.42254 0.24788,0.35808 0.69437,0.30416 1.06964,1.10378 0.43133,0.28897 0.37945,0.16169 0.40331,0.0687 0.50674,0.0215 0.15858,0.18926 0.12986,0.41858 0.24796,0.3794 0.50898,0.0909 0.0975,-0.0909 0.021,-0.021 0.021,-0.15172 0.044,-0.12747 0.18945,0.021 0.15475,0.13434 0.0785,0.19175 0.0959,0.17024 0.23941,0.0738 0.47649,-0.21577 0.021,-0.51303 -0.16816,-0.59733 -0.0681,-0.48758 0.0934,-0.14502 0.5433,-0.39456 0.41632,0.29539 0.55415,-0.16816 0.13242,-0.12508 0.30191,-0.28666 0.0703,-0.43127 0.31707,-0.0768 1.1473,0.0768 1.58498,-0.1321 0.0405,-0.22654 -0.077,-1.17737 -0.0574,-0.75693 -0.20261,-0.71604 -0.31264,-0.0487 -0.25015,0.16418 -0.10002,0.38388 -0.0459,0.48079 -0.083,0.41633 -0.17734,0.28026 -0.21998,0.16565 -0.58434,0.26966 -0.13227,0.13179 -0.0335,0.11663 -0.0655,0.027 -0.25433,-0.11886 -0.11869,-0.10115 -0.0892,-0.16336 -0.11056,-0.43588 0.021,-0.35784 0.28253,-0.63187 0.0251,-0.46369 0.3407,0.15236 0.25016,-0.0571 0.15411,-0.24377 0.0825,-0.39455 -0.27812,-0.11678 -0.30407,-0.0634 -0.64688,-0.021 -0.29553,-0.0482 -0.22637,-0.11885 -0.16816,-0.11662 -0.13433,-0.0464 -0.29341,-0.31057 -0.11216,-0.71152 0.0356,-0.7892 0.11678,-0.55436 -0.33643,-0.54336 -0.11168,-0.23075 -0.0356,-0.30841 0.0851,-0.21989 0.15189,-0.18486 0.0766,-0.20472 -0.13928,-0.29539 -0.19197,-0.14598 -0.16252,0.021 -0.16648,0.0842 -0.21775,0.0485 -0.20262,-0.25447 0,-0.55638 0.13912,-0.56278 0.21997,-0.25227 0.13976,-0.10386 -0.10418,-0.20471 -0.17776,-0.11678 -0.093,0.13928 -0.0528,0.0892 -0.11503,0.123 -0.17045,0.0913 -0.16127,-0.022 -0.0404,-0.17233 0.21077,-0.53281 -0.021,-0.21775 -0.15012,-0.0512 -0.50892,-0.0439 -0.17066,-0.0635 -0.13194,-0.3299 -0.0289,-0.35804 -0.12301,-0.28457 -0.42922,-0.10833 -0.30178,-0.0235 -0.063,-0.0954 0.063,-0.24591 0.068,-0.74832 0.12508,-0.39249 0.0251,-0.2414 -0.81514,-0.27385 0.63611,-0.18945 0.2138,-0.1878 0.12747,-0.34919 0.0635,0.13561 0.1642,0.23512 0.0784,0.18278 -0.14661,-0.86463 -0.5327,-1.76824 -0.24575,-1.74037 -0.57159,-1.70781 -0.15959,-1.1603 -0.112,-0.44202 -0.19593,-0.39471 -0.29767,-0.28029 -0.37952,-0.12285 -0.32991,-0.021 -0.26741,-0.0763 -0.17567,-0.34068 -0.021,-0.35795 0.0547,-0.53478 0.11216,-0.49392 0.16647,-0.25873 0.25864,0.11009 1.05893,0.98988 0.28235,-0.51102 -0.31483,-0.34501 -0.94454,-0.42912 -0.27377,-0.31709 -0.21238,-0.37737 -0.13384,-0.47448 -0.0635,-1.14727 0.0443,-0.29529 0.25439,-0.11073 1.33049,-0.089 0.32791,-0.25448 -0.021,-0.4422 -0.289,-0.6706 0.27378,-0.27171 -0.15604,-0.37301 -0.23496,-0.33218 0.0265,-0.13641 0.37307,-0.0406 0.36651,-0.13561 0.29993,-0.21789 0.17735,-0.32341 -0.0616,-0.33643 -0.16816,-0.42267 -0.0616,-0.35796 0.21779,-0.14741 0.0957,-0.2109 0.0357,-0.46795 -0.021,-0.49157 -0.0487,-0.28683 0.28255,-0.11216 0.16189,-0.28894 0.027,-0.36434 -0.13226,-0.34514 -1.58271,0.49803 -0.45949,0.31717 -0.44838,0.20659 -0.59092,-0.021 -1.1841,-0.28038 -0.51947,-0.21215 -0.36022,-0.23729 -0.38593,-0.20261 -0.59727,-0.0737 -1.17534,0.0823 -0.53478,-0.14502 -0.33001,-0.50041 0.58237,0.021 0.5627,0.13257 0.56502,0.0547 0.56928,-0.20473 0.26518,-0.34509 -0.11024,-0.28029 -0.34935,-0.10594 -0.47441,0.2087 -0.0526,-0.0975 -0.038,-0.0763 -0.0323,-0.19177 0.48525,-0.24794 -0.28896,-0.54789 -0.86479,-0.86462 0.33635,0 -0.24572,-0.55205 -0.81728,-0.81518 -0.0871,-0.63826 0.75056,0.5069 0.59951,0.59077 1.90626,2.75162 0.0761,0.24595 0.021,0.23054 0.0909,0.17107 0.31693,0.0616 0.26102,-0.0464 0.13019,-0.12764 0.0238,-0.17631 -0.0764,-0.17588 0.43571,-0.64918 0.22426,-0.0954 0.14663,0.37947 0.37953,-0.332 0.19197,-0.11678 0.2609,-0.0975 -0.18006,-0.36675 0.29758,-0.17673 0.54563,-0.54135 0.45922,-0.20472 -0.10147,0.49815 -0.0426,0.51528 0.0825,0.3105 0.19784,0.0914 0.1719,-0.0357 0.034,-0.0913 0.1715,0.1297 0.10817,0.0295 -0.021,0.0546 -0.19177,0.23276 -0.16627,0.0919 -0.25664,0.0319 -0.47015,-0.0251 0.0804,0.10419 0.044,0.0911 0.0595,0.0823 0.1321,0.083 -0.28896,0.26516 -0.86483,0.45718 0.45079,0.31707 0.33853,-0.10115 0.51327,-0.5759 1.54401,-0.63817 0.2588,-0.18946 0.0685,-0.59952 0.98327,-2.75605 0.33215,-0.4032 0.0785,-0.27379 0.0801,-0.52632 0.40761,-1.17515 0.72665,-1.36512 0.0825,-0.21776 0.0634,-0.59299 0.0718,-0.29546 0.11902,-0.21782 0.2824,-0.35807 0.23287,-0.42253 0.0763,-0.42271 -0.18695,-0.34493 -2.11562,-0.90362 -0.37292,-0.36236 -0.61473,-0.76763 0.15961,-0.19637 -0.0825,-0.28453 0.2045,-0.75914 -0.11662,-0.42261 -0.1807,0.2394 -0.276,0.11678 -0.29332,-0.0111 -0.22853,-0.15555 -0.76768,0.17672 -0.55643,-0.0897 -0.42042,-0.36653 -0.38824,-0.64691 0.39464,-0.1538 0.10003,-0.021 0.19614,0.0552 0.0703,0.12046 0.0214,0.10848 0.0337,0.0616 0.13227,0.0431 0.19407,0.0975 0.17587,0.0427 0.13226,-0.0355 0.0616,-0.24806 0.13433,-0.0805 0.65992,-0.0567 1.33697,0.0509 0.61889,-0.16419 -0.0697,0.1809 -0.036,0.10833 -0.0546,0.0975 -0.16732,0.14773 0.58864,-0.0426 0.96612,-0.42264 0.56075,-0.0703 0.40337,0.1254 0.3449,0.28906 0.30406,0.40117 0.26528,0.45065 -0.48527,0 0,0.19761 0.61676,0.0805 0.53912,-0.39896 1.8675,-2.69343 0.87983,-1.58278 0.0214,0.0784 0.021,0.0763 0.0251,0.0359 0.11902,-0.021 0.39462,-0.80221 0.16065,-0.22007 0.24587,-0.25212 0.0549,-0.12077 -0.0272,-0.17317 -0.0245,-0.37081 0.15012,-1.04167 -0.074,-0.31049 -0.24586,-0.21233 -0.17192,0.0842 -0.0909,0.0458 -0.021,0.0292 0.0319,0.0802 0.0823,0.12715 -0.37945,0.45513 -1.16014,0.47867 -0.24801,0.44423 -0.0405,0.34512 -0.11869,0.35794 -0.15779,0.30622 -0.1855,0.19761 -0.27386,0.10801 0.021,-0.12508 0.10146,-0.25677 0,-0.27822 -0.23078,-0.38597 -0.33849,-0.29538 -0.4357,-0.18947 -0.5283,-0.0653 -0.21091,-0.25872 0.44854,-0.60167 0.98544,-0.98986 -0.37944,-0.11662 -0.0978,-0.26313 0.0978,-0.29106 0.20449,-0.22635 0.28905,-0.0549 0.33637,0.10115 0.18695,0.20659 -0.16063,0.28026 0.6555,-0.16647 0.92087,-0.38823 0.8432,-0.53046 0.37942,-0.56929 0.14693,0 0.15413,0.39038 -0.13227,0.81514 0.15412,0.28246 -0.0764,0.12954 -0.0761,0.0957 -0.0784,0.0763 -0.0892,0.057 0.85182,0.28053 0.26748,-0.11087 0.33199,-0.53269 0.2523,-0.55198 0.12699,-0.4615 -0.0676,-0.37527 -0.31281,-0.28027 0.56075,-0.87983 0.32561,-0.4011 0.28259,-0.021 0.0335,0.39678 -0.24141,0.44638 -0.13592,0.48516 0.34502,0.50679 -0.3386,0.43781 -0.21995,0.43554 -0.27175,0.97476 0.40121,-0.1834 0.77191,-0.20262 0.37304,-0.26522 0.83893,-1.14727 0.39242,-0.42264 0.85833,-0.53051 0.24582,-0.34715 -0.45712,-1.01142 0.0997,-0.48079 0.23292,-0.46161 0.14518,-0.47219 -0.34726,-0.66856 -0.70519,-0.84528 -0.45494,-0.74617 0.37945,-0.35149 0.32996,0.1855 0.49392,0.36434 0.45064,0.21232 0.19761,-0.27393 -0.068,-0.42268 -0.18715,-0.30186 -0.57369,-0.48504 -0.21995,0.10004 -0.0565,-0.1738 0.0697,-0.25872 0.20868,-0.20868 0.19802,-0.11662 0.20638,0.20032 0.42705,0.66199 0.10354,0.0954 0.26747,0.14678 0.11071,0.10354 0.044,0.17776 0.021,0.25251 0.0482,0.22419 0.12556,0.0979 0.42698,0.041 0.21993,0.14678 0.0768,0.3105 0.0488,0.98549 0.12987,0.42707 0.25445,0.23284 0.38598,-0.11662 0.42271,0.33202 2.5964,-1.45997 0.37524,-0.11073 0.80857,-0.50467 0.46373,-0.11216 1.70791,-0.92078 -0.0678,-0.64058 -0.6814,-0.61013 -0.90999,-0.33216 -0.71167,0.20263 -0.25661,0.21994 -0.40972,0.22426 -0.37963,0.021 -0.17024,-0.45063 0.21227,-0.0461 1.25279,-0.61228 -0.19761,-0.50042 -0.12301,-0.21359 -0.17087,-0.19614 -0.15044,-0.13386 -0.49378,-0.23286 -0.69659,-0.47441 -0.28032,-0.0932 -0.23929,0.24795 -0.18717,0.034 -0.21219,-0.28256 0,-0.19596 0.13178,-0.64907 0.021,-0.28018 -0.0614,-0.27397 -0.0936,-0.19384 -0.67273,-0.91434 -0.20472,-0.42266 -0.0975,-0.4788 -0.0214,-0.67293 0.27611,0.15253 0.10834,0.0916 0.0999,0.13752 0.30831,-0.17631 0.32355,-0.0426 0.31697,0.0913 0.28686,0.2178 0.20032,0.25449 0.0701,0.16815 0.0323,0.20659 0.10003,0.37304 0.0405,0.21217 -0.021,0.18529 0.021,0.16857 0.11471,0.19762 0.11487,0.0404 0.32125,-0.021 0.13912,0.068 0.25455,0.0823 0.29102,-0.0823 0.24376,-0.0378 0.0978,0.2199 0.20451,0.64922 0.89499,-0.62116 0.20638,0.50671 -0.14662,0.52634 -0.35804,0.10593 -0.42911,0.0485 -0.36663,0.34295 0.73324,-0.11472 0.82594,-0.332 1.38225,-0.84521 -0.80438,-0.23949 -0.32348,-0.21779 0.0784,-0.37952 0.08,-0.23286 -0.0616,-0.20661 -0.0828,-0.18966 -0.021,-0.21216 0.0892,-0.11216 0.15412,-0.10417 0.14502,-0.15189 0.0635,-0.26101 -0.0697,-0.21212 -0.18362,0.0805 -0.20659,0.17379 -0.17838,0.0549 -0.15891,-0.22001 -0.17798,-0.40539 -0.123,-0.47874 -0.0217,-0.39674 0.14614,0 0.0828,0.2264 0.42915,0.69868 0.0893,-0.10593 0.22426,-0.13418 0.1412,-0.12301 0.34505,0.36015 0.1321,0.41404 -0.0526,0.39455 -0.24151,0.31051 0.11662,0.25236 0.69214,0.68364 0.13592,0.26532 0.021,0.18235 0.0952,0.0598 0.40747,-0.11902 0.49598,-0.30406 0.63195,-0.77855 0.49813,-0.23925 -0.14471,0.36439 0.52821,-0.33851 0.10003,-0.0427 7.6576,-22.96833 -22.36248,-15.9858 27.48817,0.21233 8.29381,-26.20955 8.29156,26.20955 27.49062,-0.21233 -22.36467,15.9858 0.0238,0.0718 0.0549,0.0242 0.28895,0.027 1.23804,-0.18486 3.48256,-1.0264 0.42912,0.0215 0.37946,0.16608 0.38175,0.35355 0.46353,0.1855 0.35597,-0.26953 0.21997,-0.20472 0.021,0.37958 -0.15475,0.49162 -0.29962,0.22651 -0.41849,0.0485 -1.19676,-0.0635 -0.21091,0.0635 -0.27387,0.1759 -0.71801,0.75471 -0.1782,0.11711 -0.24589,0.11072 -0.26733,0.0823 -0.56288,0.10003 -0.61896,0.32143 -1.1514,1.13217 0.34933,1.05227 1.04796,-1.25069 0.87339,-0.63191 7.59946,-3.44819 2.84202,-1.06963 2.01205,-1.13206 0.70523,-0.31705 0.9984,-0.3084 0.53466,-0.0541 2.88544,0.0541 0.70295,0.20472 0.276,-0.021 0.37316,-0.47651 -0.38167,-0.84531 -1.29381,-1.50742 -0.56294,-1.0049 0.18236,-0.98119 1.87184,-2.69776 0.23288,-0.49804 0.0911,-0.50035 0.28032,-0.12699 0.61893,-0.021 0.47221,0.0464 0,-0.021 0.48526,-0.85623 1.39954,-1.59132 -0.183,-0.33 0.041,-0.25452 0.29969,-0.53904 0.15778,-0.62539 -0.021,-0.43989 -0.0851,-0.39254 -0.0547,-0.50675 -0.0466,-0.18362 -0.23285,-0.40336 -0.0549,-0.27163 0.0406,-0.31258 0.22637,-0.54146 0.0655,-0.27376 -0.10816,-0.62315 -0.34509,-0.39034 -0.36019,-0.33654 -0.16816,-0.42044 -0.0893,-1.21411 0.0737,-0.52613 0.33853,-0.61899 0.57792,-0.71798 0.1855,-0.37312 0.0634,-0.51338 -0.0275,-0.21985 -0.29759,-0.82373 0.0217,-0.0268 -0.0217,-0.53473 -0.0616,-0.12301 -0.19177,-0.12539 -0.0702,-0.13928 0.021,-0.54142 0.21222,-0.48517 0.36452,-0.34721 0.46374,-0.13241 0.0507,-0.28676 0.34517,-1.36718 0.19615,-0.42697 0.8195,-0.65552 0.22854,-0.39681 0.19635,-1.31334 0.86459,-1.59362 0.13019,-0.46149 0.036,-0.24365 0.021,-0.33205 -0.0242,-0.30846 -0.12109,-0.52827 -0.0242,-0.30194 0.0867,-0.29109 0.21235,-0.23299 0.3664,-0.32119 0.14662,-0.29114 0.0335,-0.11886 -0.18362,-0.35798 -0.17817,-0.2047 -0.3796,-0.59733 -0.20681,-0.62532 0.35365,-0.2912 0.21569,-0.0318 0.64912,-0.20471 0.19198,-0.12508 0.0913,-0.2783 -0.10018,-0.20471 0.0127,-0.021 -0.33017,-0.29537 -0.63814,-1.02866 0.0443,-0.30834 0.2288,-0.37093 0.0531,-0.27604 0.0616,-1.23134 -0.12078,-0.45497 -0.43131,-0.10386 -0.46379,0.11901 -0.0823,0 -0.0696,-0.021 -0.0485,-0.021 -0.0697,-0.0542 -0.0707,-0.0721 -0.0616,-0.0954 -0.0461,-0.14502 -0.10004,-0.73959 -0.0325,-0.14502 -0.1254,-0.20659 -0.0764,-0.14119 -0.057,-0.18948 -0.0458,-0.22632 -0.0464,-0.15571 -0.0634,-0.12987 -0.0759,-0.11199 -0.26302,-0.28252 -0.61042,-0.51964 -0.1045,-0.123 -0.0766,-0.1717 -0.0485,-0.29544 0.0289,-0.19177 0.0461,-0.16209 0.0999,-0.24582 0.0701,-0.11216 0.30195,-0.38389 0.021,-0.0919 -0.038,-0.0764 -0.32991,-0.21769 -0.36652,-0.40327 -0.23944,-0.32559 -0.0758,-0.18006 -0.0701,-0.24156 -0.0616,-0.44203 -0.0616,-0.23312 -0.0761,-0.16857 -0.0975,-0.0804 -0.13018,-0.0568 -0.28465,-0.0785 -0.10864,-0.0526 -0.089,-0.0738 -0.0701,-0.12701 -0.0484,-0.11662 -0.0519,-0.22428 0.021,-0.1337 0.0676,-0.10817 0.25447,-0.16314 0.021,-0.021 0.0295,-0.0355 0.0546,-0.0763 0.0701,-0.14502 -0.021,-0.14327 -0.0764,-0.11503 -0.11071,-0.0758 -0.13594,-0.0525 -0.57788,-0.18048 -0.13194,-0.0681 -0.11694,-0.0761 -0.20639,-0.17192 -0.64052,-0.70945 -0.23078,-0.3235 -0.14693,-0.25235 -0.0616,-0.16084 -0.0851,-0.26966 -0.021,-0.21077 0.021,-0.20012 0.0975,-0.28679 0.0975,-0.20263 0.0322,-0.15171 0.0353,-0.2329 0.0427,-0.78063 0.0359,-0.2523 0.10816,-0.44203 0.021,-0.16439 -0.021,-0.13864 -0.0546,-0.10466 -0.0701,-0.0893 -0.0828,-0.0844 -0.0823,-0.21556 -0.0892,-0.32562 -0.16315,-1.07615 -0.0597,-0.25223 -0.61236,-0.90791 -0.16795,-0.34931 -0.0975,-0.27395 -0.11024,-0.26314 -0.21358,-0.37511 -0.32574,-0.42266 -0.46147,-0.48314 -0.21236,-0.17484 -0.78054,-0.39483 -0.10418,-0.0683 -0.10003,-0.0871 -0.0802,-0.10003 -0.48733,-0.90137 -0.11057,-0.13481 -0.29548,-0.23085 -0.15396,-0.0842 -0.32359,-0.23728 -0.12317,-0.14678 -0.0482,-0.10147 -0.021,-0.0571 0.021,-2.07655 0,-3.28429 0.021,-3.29514 0.021,-3.29291 0.021,-3.29718 0,-3.30377 0.021,-3.30795 0.021,-3.31008 0.021,-3.31679 -0.0357,-3.38339 -0.0251,-3.38344 -0.0357,-3.38352 -0.0246,-3.39635 -0.0238,-1.84594 0,-0.0215 -0.22421,-0.0927 -0.35793,-0.17567 -0.68788,-0.51979 -0.43782,0.22213 -0.4938,0.029 -0.46362,-0.12539 -0.81076,-0.4701 -0.35808,0.12955 -0.30837,0.27607 -0.32576,0.14678 -1.15353,-0.59306 -0.40118,0.021 -0.24802,0.33864 -0.16648,0.45713 -0.24592,0.24365 -0.47873,-0.26526 -0.50665,0.25237 -0.43566,-0.0897 -0.1717,-0.27168 0.29756,-0.29554 0,-0.17986 -0.59943,0.0909 -0.58011,-0.16668 -0.43334,-0.41198 -0.17819,-0.59077 -0.23292,-0.52186 -0.40545,-0.0957 -0.1254,-0.0265 -0.60367,-0.0215 -0.43989,-0.21572 0,0.19761 -1.12562,-0.38791 -0.34944,-0.1855 0.0766,-0.16125 0.0758,-0.10098 -0.50683,-0.0516 -0.62967,0.10402 -0.17547,-0.23934 -0.27388,-0.16859 -0.33208,-0.10402 -0.33638,-0.068 -0.15141,0.021 -0.276,0.13179 -0.16836,0.0251 -0.13418,-0.0549 -0.20241,-0.25241 -0.4162,-0.21219 -0.3818,-0.66849 -0.33645,-0.15396 -0.2888,-0.021 -0.60599,-0.19384 -1.56131,-0.2738 -0.89493,-0.87989 -0.34493,-0.61876 -0.12302,-0.17778 -0.23503,-0.16815 -0.20867,-0.089 -0.14998,-0.1759 -0.0595,-0.43342 -0.0635,-0.13928 -0.1471,-0.1514 -0.18947,-0.13179 -0.17776,-0.0486 -0.82374,-0.0249 -0.36447,-0.12093 -0.38175,-0.26094 -0.75699,-0.77202 -0.41611,-0.28915 -0.74833,-0.18466 -0.13018,-0.16105 -0.0911,-0.2066 -0.1254,-0.16898 -0.27381,-0.17507 -1.56998,-0.53487 -0.39242,0.0619 -0.45286,0.3645 -0.13561,0.43113 -0.0334,0.50032 -0.1345,0.30629 -0.27598,-0.15077 -0.13578,0.2244 -0.18485,0.11838 -0.21792,0.0805 -0.25432,0.15524 -0.26959,-0.16232 -0.16816,-0.021 -0.068,0.26095 -0.021,0.22209 -0.0572,0.12094 -0.0959,0.0676 -0.15045,0.0763 -0.20867,0.027 -1.98829,-0.0635 -0.26311,0.0339 -0.15411,-0.19783 -0.1554,-0.12349 -0.18319,-0.0616 -0.22657,-0.0241 -0.10147,0.0634 -0.13975,0.11694 -0.12508,0.0482 -0.0461,-0.1254 -0.0981,-0.12954 -0.0567,-0.10004 0.021,-0.0461 -0.75261,-0.007 -0.30176,-0.17108 0.22433,-0.40755 -0.18527,-0.44639 -0.26739,-0.21562 -0.30202,-0.16085 -0.31255,-0.26099 -0.31279,-0.1187 -0.26747,0.24794 -0.31693,0.54769 -0.1834,-0.021 -0.39894,-0.14694 -0.0715,0.0653 -0.56493,0.29984 -0.2394,0.0616 -0.26742,0.14597 -0.23935,0.19177 -0.15173,0.18528 -0.2458,-0.0214 -0.36014,0.0489 -0.78069,-0.0263 -0.16209,0.18277 0.0973,0.8109 -0.26312,0.18716 -0.15959,-0.0636 -0.13417,-0.13179 -0.123,-0.20032 -0.19384,0.0618 -0.13705,0.13498 -0.13976,0.20033 -0.66643,0.10833 -0.276,-0.0676 -1.35069,-0.8582 -0.25441,-0.25873 -0.24587,-0.0721 -0.29769,0.17546 -0.25234,0.26961 -0.10418,0.21075 -0.16816,-0.021 -0.36651,0.19761 -0.44415,0.31261 -0.80022,0.34296 -0.33855,0.0427 -1.21838,0 -0.23724,0.0634 -0.48735,0.26745 -0.25883,0.0602 -0.23283,0.1999 -0.42274,0.98332 -0.23064,0.37517 -0.44854,0.27835 -0.43352,0.0514 -1.01132,-0.11216 -0.62538,0.0849 -0.14502,0.25439 0.021,0.42689 -0.13225,0.59093 -0.65976,0.47434 -0.71387,-0.67701 -0.67502,-1.06532 -0.55208,-0.68144 -0.4399,-0.0825 -1.61723,0.0825 -0.17839,-0.0897 -0.0888,-0.22643 -0.0546,-0.26733 -0.0763,-0.21092 -0.13227,-0.11678 -0.52177,-0.2696 -0.97696,-0.30188 -0.29546,-0.31691 -0.089,-0.10418 -0.0722,-0.12508 -0.0339,-0.14071 0,-0.15173 0.0427,-0.13928 0.2608,-0.5347 -0.0634,-0.16961 -0.19784,-0.20451 -0.591,-0.24164 -0.32329,-0.0844 -0.2481,0.021 -0.11695,0.0654 -0.10146,0.10004 -0.14998,0.23934 -0.30824,0.88628 -0.0635,0.13257 -0.0763,0.11678 -0.0803,0.11009 -0.10594,0.0909 -0.17567,0.0823 -0.24801,0.068 -0.45709,0.057 -0.25882,-0.021 -0.20471,-0.0424 -0.12508,-0.0681 -0.62103,-0.47004 -0.24362,-0.12093 -0.20013,-0.0323 -0.85191,0.11502 -0.22425,-0.021 -0.17798,-0.0547 -0.11216,-0.0828 -0.28472,-0.30195 -0.14678,-0.23067 -0.11232,-0.28246 -0.14581,-0.80235 -0.10132,-0.28892 -0.11486,-0.13593 -0.16691,-0.1278 -0.32574,-0.13656 -0.22643,-0.0443 -0.20471,0 -0.81522,0.14517 -0.1321,0.0634 -0.12509,0.0681 -0.17775,0.22005 0.021,0.37301 -0.0546,0.68786 -0.37306,0.78073 -0.36657,0.47867 -0.52619,0.14119 -0.84537,-0.22636 0.0338,0.43768 0.1713,0.19781 0.19175,0.13912 0.0911,0.28686 -0.10594,0.20867 -0.4572,0.26744 -0.0954,0.3106 -0.0549,0.8302 -0.21091,0.73091 -0.44625,0.46373 -0.75269,0.0249 -0.56284,-0.36014 -0.46364,-0.63831 -0.32552,-0.76127 -0.11679,-0.68783 0.10402,-0.48515 0.45051,-0.71814 0.10817,-0.46585 -0.0618,-0.34936 -0.18278,-0.32554 -0.26521,-0.27389 -0.30402,-0.21569 -0.14678,0.0872 -0.29534,0.1187 -0.13018,0.0893 -0.1061,0.13561 -0.0785,0.21093 -0.4205,0.73322 -0.1321,0.18694 -0.63182,-0.57358 -0.28898,-0.0785 -0.38166,0.25445 -0.0461,0.093 -0.13179,0.28905 -0.0764,0.11472 -0.11662,0.12747 -0.25449,0.15172 -0.10146,0.0975 -0.18508,0.13177 -0.26749,0.0893 -1.55269,0.0957 -0.37737,-0.23925 -0.14598,-0.65994 -0.0618,-0.59076 -0.19615,-0.36678 -0.34912,-0.2047 -0.53269,-0.098 -1.53549,0.10418 -0.3514,-0.21236 -0.22006,-0.53478 0.0241,-1.06312 -0.21237,-0.47877 -0.90137,-0.44209 -0.93801,0.31048 -0.83472,0.67504 -2.05073,2.05951 -0.93593,0.57348 -1.04582,0.18362 -1.01364,-0.33224 -0.54126,-0.28467 -0.23274,-0.28247 0.0542,-0.42259 0.0426,-0.17798 0.048,-0.29546 0.1596,-0.59301 0,-0.27381 -0.1596,-0.31055 0.14502,-0.32782 -0.0431,-0.29533 -0.17546,-0.23301 -0.24163,0.0616 -0.84313,-0.29748 -1.1753,-0.23511 -0.89921,-0.46152 -0.0431,-0.94016 -0.1163,-0.61238 0.089,-0.85177 0.021,-0.75274 -0.37308,-0.32992 -0.60387,0.0909 -1.12129,0.40756 -0.72896,0.0893 -3.18715,-0.40755 -0.60597,0.1692 -0.37304,0.41404 -0.28911,0.52184 -0.3515,0.47876 -0.12316,0.26101 -0.5779,0.10131 -1.19478,0.021 -0.35999,-0.21549 -0.79373,-0.92322 -0.30611,-0.21772 -0.16127,-0.1538 -0.37946,-0.6835 -0.26736,-0.15173 -0.77849,-0.17171 -0.29123,-0.021 -0.53477,0.10004 -1.59792,0.66417 -0.27814,-0.15476 -2.99313,-0.64902 -0.47659,-0.1786 -1.79636,-1.17303 -0.53479,-0.12077 -0.37749,0.0932 -0.38161,0.16232 -0.50688,0.083 -0.47867,-0.0701 -0.90781,-0.27174 -0.48518,-0.0717 -1.1083,0.0487 -0.53712,-0.1045 -0.40764,-0.3299 -0.0888,-0.46364 -0.0618,-1.55702 0.0825,-0.33843 0.0957,-0.23083 -0.41628,-0.49821 -0.73091,-0.65557 -0.22644,-0.45921 -0.14503,-0.51762 -0.23071,-0.43118 -0.48302,-0.18215 -0.453,-0.0265 -0.24144,-0.0568 -0.20638,-0.0917 -0.20471,-0.20659 -0.10354,-0.20868 -0.0616,-0.20034 -0.11231,-0.17608 -0.44213,-0.31691 -0.35793,-0.021 -0.24151,0.3322 -0.13912,1.42531 -0.19177,0.43563 -0.36003,0.18069 -0.5586,-0.0546 -0.5025,-0.20242 -0.90994,-0.50245 -1.14732,-0.1644 -0.21075,0.0549 -0.2109,0.13928 -0.27587,0.31919 -0.1717,0.13177 -0.43558,0.13562 -1.4405,-0.13562 -0.442,-0.14039 -0.30403,-0.32353 -0.46571,-0.7093 -4.02194,-3.86658 -0.23505,-0.15171 -0.52828,-0.0957 -0.21787,-0.1254 -0.36645,-0.11072 -1.06762,0.15173 -0.38604,0.0383 0,-1.6367 -0.021,-3.27568 0,-3.28862 -0.021,-3.28431 0,-3.2907 -0.021,-3.29732 -0.021,-3.308 0,-3.30367 -0.021,-3.31656 -0.021,-3.31239 0,-3.32304 -0.021,-3.32105 0,-3.33598 -0.021,-3.33386 -0.021,-3.34238 0,-3.34262 -0.021,-3.34905 0,-1.46203 -8.00898,0 -4.47698,-0.021 -58.96175,0 z m 139.84832,90.13566 -1.25719,9.10447 c -0.2692,1.44832 -0.35907,1.74245 -0.71811,3.01694 0.98744,-0.33925 1.25828,-0.38018 2.33543,-0.54559 l 2.0636,-0.31703 -1.34554,9.0226 -4.12957,0.63395 -4.30863,30.30037 -0.36014,1.93014 c 0,1.40685 0.4502,1.61898 2.78402,1.35423 l 1.07606,-0.16418 -1.25499,9.00966 -2.06597,0.31703 c -4.39825,0.67572 -6.10248,0.65586 -7.98752,0.10003 -2.87231,-0.77801 -4.04009,-3.13058 -3.68102,-7.31253 0.0884,-1.32687 0.26901,-2.66715 0.44863,-4.10159 l 3.85996,-26.85663 c 0.26934,-1.44812 0.35908,-1.83513 0.71804,-3.10949 -0.80786,0.31167 -0.98747,0.33813 -1.70567,0.44844 l -1.52467,0.23507 1.34558,-9.02465 2.87242,-0.43984 1.7943,-11.90592 11.04098,-1.69707 z m 51.26754,3.17859 c 3.82528,-0.0418 6.0189,2.25809 5.76636,6.2537 -0.0885,1.13923 -0.0871,2.26514 -0.35782,3.71342 l -6.01447,41.63037 -11.04115,1.69492 5.65441,-39.22804 c 0.18174,-0.68412 0.1807,-0.96524 0.1807,-1.80931 0,-0.84407 -0.53775,-1.2314 -1.34559,-1.20109 -1.07706,0.0707 -1.70592,1.01344 -1.9753,3.1183 l -5.74475,39.61828 -11.03888,1.69499 7.53895,-52.08704 11.04097,-1.69493 -0.18047,1.15162 -0.36012,0.99395 -0.35786,0.80455 0.18027,0.15858 c 2.60323,-3.30752 4.30722,-4.50683 7.26941,-4.77442 0.2693,-0.0238 0.53215,-0.0351 0.78709,-0.0383 z m -30.04161,4.87786 c 5.65373,-0.12157 7.59964,2.06445 7.23506,7.45493 l -0.35803,3.61854 -3.95059,26.96209 c -0.71815,5.45644 -0.89765,6.14002 -1.43609,7.6295 -1.6159,4.84406 -4.75601,6.73431 -12.74485,7.96167 -8.79666,1.35154 -12.20843,-0.93847 -11.58014,-7.31899 0.18173,-1.43445 0.35909,-3.14966 0.7181,-5.26819 l 3.76954,-26.65385 c 0.98732,-6.52954 1.88509,-8.82406 4.30847,-10.79083 1.97485,-1.52271 4.75916,-2.41969 9.51654,-3.15072 1.71664,-0.2636 3.21739,-0.41553 4.52199,-0.44415 z M 423.66589,456.69 c 1.60433,0.021 2.94949,0.18176 3.84711,0.51111 1.88503,0.64826 3.14196,2.61275 3.14196,4.9577 0,1.50062 -0.0885,2.16991 -0.2696,3.51063 l -1.07594,7.76326 -11.04102,1.69719 0.98758,-6.8123 c 0.18132,-1.52819 -0.3604,-2.38374 -1.34789,-2.23181 -1.16687,0.18089 -1.70385,1.01333 -1.97313,2.93047 l -0.71811,4.42514 c -0.0885,1.23304 -0.1813,2.18534 -0.0893,2.54664 0.18109,0.5352 0.80898,1.00147 1.79631,1.41249 l 6.01219,2.82718 c 3.23148,1.37937 4.3993,3.07557 4.3993,5.7016 0,0.65668 -0.18153,1.99739 -0.26965,3.23051 l -1.3457,9.02248 c -1.16692,7.96414 -3.95063,10.54922 -13.2858,11.98344 -8.79675,1.3516 -12.38572,-0.44159 -12.02652,-6.12429 0,-0.93806 0.0885,-2.07738 0.26946,-3.23038 l 1.25507,-8.53955 10.95051,-1.68423 -1.16667,7.68331 c -0.2693,2.10494 -3.2e-4,2.90851 1.16667,2.8229 1.25671,-0.0168 1.79527,-0.8401 2.15424,-3.33389 l 0.80868,-5.84399 c 0.0885,-0.57649 0.1809,-1.1525 0.1809,-1.62147 0.0883,-1.04567 -0.26876,-1.36614 -1.61528,-2.00342 l -7.45047,-3.45243 c -2.15435,-0.88838 -3.23094,-3.06735 -3.05143,-5.72117 l 0.26956,-2.85504 1.34563,-8.45981 c 0.89767,-6.60951 4.21942,-9.37077 12.74696,-10.68101 1.92976,-0.29649 3.79302,-0.44276 5.3975,-0.43126 z m -75.88778,0.19636 -1.52465,10.55151 -7.18109,1.10412 -1.52669,10.36391 c -0.26929,1.44829 -0.35907,1.83733 -0.71808,3.11185 1.2567,-0.38074 1.61656,-0.43578 2.96291,-0.64264 l 4.48763,-0.69009 -1.52671,10.45678 -7.18109,1.10396 -4.30856,29.73754 -12.74473,1.95811 9.24476,-63.97991 20.0163,-3.07514 z m 118.00978,1.94079 c -1.16694,0.0842 -1.70596,0.8248 -1.97519,2.83582 l -4.22028,29.53475 c -0.0888,0.57653 -0.18028,0.9672 -0.18028,1.06103 -0.0884,0.85783 0.4502,1.52446 1.34767,1.38654 1.07724,0.0222 1.61421,-0.71831 1.97322,-2.93066 l 4.22019,-29.62759 c 0.0885,-0.48269 0.0872,-0.85825 0.0872,-1.23344 -0.0884,-0.73653 -0.53721,-1.04285 -1.25527,-1.02645 z m -70.67131,2.1046 c 5.65359,-0.12157 7.5995,2.06236 7.23489,7.45271 l -0.35802,3.62077 -3.95059,26.96221 c -0.71802,5.45645 -0.89756,6.13987 -1.43625,7.62941 -1.61564,4.8441 -4.75583,6.73424 -12.74458,7.96165 -8.79661,1.35159 -12.20841,-0.9384 -11.58006,-7.31899 0.1807,-1.43451 0.3589,-3.14957 0.71803,-5.26824 l 3.7695,-26.6537 c 0.98741,-6.52958 1.88499,-8.82413 4.30864,-10.79104 1.97462,-1.52264 4.75904,-2.41954 9.51634,-3.15044 1.71671,-0.26383 3.21738,-0.41574 4.5221,-0.44434 z m -28.75204,4.4165 c 5.65363,-0.12157 7.60182,2.06445 7.23699,7.45483 l -0.36002,3.61845 -3.94841,26.96223 c -0.71808,5.45638 -0.89772,6.14004 -1.4362,7.62952 -1.61569,4.84418 -4.75803,6.7344 -12.74695,7.96176 -8.79655,1.35145 -12.20846,-0.93849 -11.58013,-7.31911 0.18111,-1.43447 0.359,-3.14956 0.71818,-5.26814 l 3.77156,-26.65391 c 0.98732,-6.52944 1.88297,-8.82402 4.30637,-10.79082 1.97483,-1.52279 4.7591,-2.41962 9.51657,-3.15062 1.71653,-0.2638 3.21744,-0.4157 4.52204,-0.44419 z m 23.51183,5.14103 c -1.16697,0.0837 -1.70607,0.82476 -1.97528,2.83569 l -4.22019,29.53692 c -0.0885,0.57658 -0.18132,0.96511 -0.18132,1.05882 -0.0885,0.85792 0.45018,1.52459 1.34778,1.38662 1.07726,0.0222 1.61416,-0.71602 1.9731,-2.92847 l 4.22022,-29.62965 c 0.0883,-0.48283 0.0871,-0.85841 0.0871,-1.23356 -0.0885,-0.73647 -0.53699,-1.04293 -1.2551,-1.02637 z m -28.75195,4.41854 c -1.16704,0.0842 -1.70613,0.82472 -1.97533,2.8357 l -4.21809,29.53476 c -0.0884,0.57665 -0.18298,0.9651 -0.18298,1.05889 -0.0885,0.85787 0.45027,1.52671 1.34794,1.38872 1.07704,0.0222 1.61398,-0.71812 1.97303,-2.93058 l 4.22022,-29.62968 c 0.0884,-0.48271 0.0871,-0.85614 0.0871,-1.2313 -0.0883,-0.73663 -0.53689,-1.0431 -1.25499,-1.02651 z M 491.96954,528.183 a 5.3785087,5.3785087 0 0 0 -1.57866,0.29982 4.4830752,4.4830752 0 0 0 -2.2901,2.51009 0.38463678,0.38463678 0 0 0 0.3644,0.38598 20.826102,20.826102 0 0 1 0.30619,-0.0514 l 0.91439,2.6028 -0.31479,0 0,0.82372 -0.84973,0 0,-1.38441 -0.71158,0 0,8.71642 0.58221,0 0,-1.3606 0.26964,-0.22225 0.28249,0.36861 0,0.50901 0.22636,0.36666 0.51976,5.47089 -0.53484,0 0,8.3413 6.038,0 0,-8.3413 -0.53469,0 0.51971,-5.47089 0.2264,-0.36666 0,-0.50901 0.28242,-0.36861 0.26966,0.22225 0,1.3606 0.58438,0 0,-8.71642 -0.71369,0 0,1.38441 -0.84962,0 0,-0.82372 -0.3149,0 0.91426,-2.6028 a 20.826102,20.826102 0 0 1 0.30624,0.0514 0.47167471,0.47167471 0 0 0 0.36438,-0.38598 5.0204124,5.0204124 0 0 0 -2.28796,-2.51009 5.3785087,5.3785087 0 0 0 -1.99033,-0.29982 z m 0.17231,29.90358 -20.16068,14.88606 0.1646,0.0235 0.32556,-0.0515 0.30851,-0.10115 0.34277,-0.0676 0.40337,0.0421 0,0.18361 -0.14678,0 -0.373,0.31484 -1.08916,0.11887 -0.42471,0.21783 -0.093,0.41397 0.51099,0.021 1.13212,-0.32781 1.40812,-0.66211 0.48529,-0.0911 0.31921,-0.1254 0.91198,-0.52837 0.47018,-0.0809 0.453,0.24377 0.14583,0.4421 -0.0846,0.41846 -0.25663,0.19154 -0.50896,0.10594 -3.42652,1.75107 -0.80221,0.58877 -0.57579,0.70502 0.7311,-0.33196 1.53327,-0.95102 1.37142,-0.455 1.45774,-1.15589 2.44967,-0.5758 1.55272,-0.77419 2.80775,-1.86544 -0.84967,0.0842 -0.91425,0.35151 -3.27141,1.87185 -0.0715,0.0706 -0.15045,0.0459 -0.1692,0.021 -0.11057,-0.0427 -0.0973,-0.16168 0.0268,-0.0978 0.0616,-0.10131 0.0268,-0.45067 0.0908,-0.25454 0.0339,-0.2739 -0.14471,-0.32974 3.20878,-1.18182 0.88421,-0.093 1.10623,0.0654 1.06751,-0.0784 1.05014,-0.26109 1.02651,-0.48515 2.73001,-1.77909 1.62592,-1.15373 0.41622,-0.16147 0.53482,-0.0636 0.27398,-0.17734 1.27871,-1.11497 1.2917,-1.44477 0.67278,-0.37304 1.73167,-1.36498 0.038,-0.0697 -4.7333,-3.49555 z m -20.88966,18.61251 -1.01768,0.28892 -0.90149,0.54116 -1.34984,1.19043 0,0.2047 0.4636,-0.0487 0.39463,-0.27381 0.60597,-0.61242 0.58435,-0.1623 0.18528,-0.25445 0.50465,-0.37744 0.19195,-0.11488 -0.021,-0.0619 0.074,-0.0685 0.0978,-0.0405 0.18945,-0.0238 0,-0.18341 z m -4.2826,2.47547 -0.15604,0.0636 -0.21217,0.0484 -0.0851,0.11662 0.021,0.56932 -0.021,0.21778 -0.28904,0.49385 -0.28901,0.14503 -0.89916,-0.0916 -0.52199,0.0676 -0.30612,0.18047 -0.48956,0.50902 -1.10199,0.49807 -0.18508,0.13928 -0.23071,0.27382 -1.00704,0.53918 -0.22655,0.47427 -0.20032,0.16481 -0.91434,0.54765 -0.28018,0.11488 -0.38619,0.0562 -0.76974,0.25232 -0.48521,0.0571 -0.39668,0.20472 -0.10626,0.47227 0.0764,0.50469 0.17588,0.30622 0,0.16878 -0.2781,0.27382 -0.26519,0.43564 -0.19762,0.50029 -0.0764,0.47226 0.17693,0 0.18716,-0.45924 0.28476,-0.39906 0.65757,-0.62957 1.27448,-0.94019 0.59741,-0.64708 2.24276,-1.18387 1.30885,-1.12357 0.74832,-0.49159 0.78066,-0.20472 1.72944,-0.85608 0.0431,-0.11057 0.20263,-0.3106 0.0635,-0.21077 0.021,-0.22644 -0.021,-0.71163 -0.0804,-0.24365 -0.007,0 -0.11056,-0.0353 z m -10.8513,7.05169 -0.3019,0.14502 -0.17859,0.29752 -0.12316,0.2653 -0.17736,0.19781 -0.32772,0.0764 -1.39523,2.39364 0,0.13225 0.45715,0.1254 0.021,0.16315 -0.14662,0.30194 -0.11216,0.1667 -0.70299,0.761 -0.86703,1.28102 -0.31476,0.81519 0.20639,0.48518 0.13928,-0.5197 0.33861,-0.51972 0.83878,-0.99414 0.97476,-1.47491 2.10679,-2.37222 0.0681,-0.24802 0.0337,-0.60373 0.0681,-0.26733 -0.0593,-0.22438 -0.22848,-0.25448 -0.30199,-0.13179 z m -4.40988,7.82354 -0.36031,0.0917 -0.18528,0.70316 -0.15046,0.28018 -1.0007,0.92947 -0.6534,0.79568 -1.30238,2.8573 -0.14598,0 -0.17861,-0.29104 -0.26722,-0.19637 -0.56289,-0.2243 0.10833,0.41837 0.13257,0.30409 -0.024,0.25438 -0.36659,0.28036 0.0737,0.52839 -0.42695,0.70291 -0.53693,0.71181 -0.26739,0.53464 -0.0459,0.31057 -0.43778,0.87769 -0.10609,0.36655 -0.20241,1.09987 -0.73326,1.72725 -0.39894,2.94145 -0.18676,0.44629 0.21997,0.12986 0.16878,-0.0764 0.26085,-0.42052 0.38611,-0.89704 0.50024,-2.20601 1.40169,-3.76739 2.21465,-4.30004 3.01478,-4.39483 0.25659,-0.28039 -0.20473,-0.24146 z m -7.73529,17.01662 -0.34512,0.39034 -0.13194,1.25724 -0.18945,0.55201 0.18945,0.47873 -0.021,0.50028 -0.16775,1.00709 0.0464,0.52608 0.21778,0.97258 0.19802,2.49724 -0.0547,0.92943 -0.22634,0.91428 0.71362,1.05464 0.0978,0.21231 0.034,0.10418 0.11694,0.21232 0.0236,0.14678 -0.0531,0.0909 -0.23496,0.0616 -0.0512,0.1013 0.0268,0.21796 0.0568,0.19384 0.0954,0.16649 0.15586,0.15667 -0.17837,0.19594 0.31693,0.62964 0.007,0 0.29761,1.15153 0.20242,0.55853 0.26741,0.44213 0.10801,0.2544 0.28243,1.49024 0.22651,0.56485 0.56492,1.02653 0.19197,0.59738 0.26535,2.03986 0.2178,0.68366 0.41617,0.68785 0.17775,0.4356 0.46773,5.42782 0.18091,0.46166 0.21769,0.15077 0.19176,-0.46362 -0.021,-0.4593 -0.25009,-1.41255 -0.34727,-0.80433 -0.0552,-0.53483 0.021,-1.13859 -0.0873,-0.60163 -0.34291,-1.06964 -0.20264,-1.58067 -0.14518,-0.58444 -0.21378,-0.33851 0.0357,-0.31488 -2.48426,-8.23977 -0.79571,-4.65357 -0.1834,-6.82528 0.1589,-0.52401 z"
       id="path4150"
       inkscape:connector-curvature="0" />
  </g>
</svg>
